PathFileType	3	(X/Y/Z)	D:\Jess\PFP\Labelled\PA24\20251014\SRRun01.trc
DataRate	CameraRate	NumFrames	NumMarkers	Units	OrigDataRate	OrigDataStartFrame	OrigNumFrames
250.0	250.0	5	33	mm	250.0	35625	2501
Frame#	Time	C7			T10			CLAV			LSHO			RSHO			LASIS			RASIS			LPSIS			RPSIS			LILCR			RILCR			LGTR			LTHI			LLTHI			LLEP			LPSH			LLSH			LDSH			LLMAL			LTOE			L5TH			LHEE			RGTR			RTHI			RLTHI			RLEP			RPSH			RLSH			RDSH			RLMAL			RTOE			R5TH			RHEE			
		X1	Y1	Z1	X2	Y2	Z2	X3	Y3	Z3	X4	Y4	Z4	X5	Y5	Z5	X6	Y6	Z6	X7	Y7	Z7	X8	Y8	Z8	X9	Y9	Z9	X10	Y10	Z10	X11	Y11	Z11	X12	Y12	Z12	X13	Y13	Z13	X14	Y14	Z14	X15	Y15	Z15	X16	Y16	Z16	X17	Y17	Z17	X18	Y18	Z18	X19	Y19	Z19	X20	Y20	Z20	X21	Y21	Z21	X22	Y22	Z22	X23	Y23	Z23	X24	Y24	Z24	X25	Y25	Z25	X26	Y26	Z26	X27	Y27	Z27	X28	Y28	Z28	X29	Y29	Z29	X30	Y30	Z30	X31	Y31	Z31	X32	Y32	Z32	X33	Y33	Z33	

626	142.496	865.9401491409851	1412.276087955769	-955.3263302396995	890.0287209523265	1184.315383901558	-878.983898133689	843.1229191281905	1308.890264335639	-1062.825983729353	686.401386441815	1363.983515102391	-977.9205861895043	999.0422052660643	1381.021837395521	-1046.622292516553	756.4235075850512	971.0329942550674	-970.2013250863874	1021.775750691574	956.6245935615101	-1004.665257900268	877.6097022919381	993.0170321046187	-812.5665661856673	927.3599082229765	990.3818055014663	-817.5163712393133	736.465800653111	1027.126433303931	-924.2595768650554	1032.972456674906	1033.919735860154	-965.5507661026296	716.9945708418999	915.454061005927	-925.3840901748109	790.7422248275456	789.0283500618627	-1082.428007527423	746.7337387304563	647.6277138836899	-1023.333983745795	783.4758563791808	485.538391911191	-1084.533941945133	843.8474805833476	401.8035711302877	-1118.242186653367	794.0529086319882	297.0255940758338	-1013.645700767819	859.6291441820294	192.1127435894516	-1027.101872684141	835.0210323502188	98.30309355696784	-944.3787138119557	825.5453638485878	63.78462278845486	-1085.474065042768	787.9649563946227	40.45520657289035	-1041.64815103478	885.9626796350008	71.93901417904937	-875.9956218547735	1078.11000126381	887.0444039101508	-949.2168221785679	1001.430746069298	712.449525808149	-1049.76617218746	1060.398957743273	616.0498403630735	-959.8179676129056	1037.334153310219	447.1730691625919	-936.458399152512	977.8893145630058	373.391832858072	-899.9948745106176	1029.942972129634	401.9058418526898	-759.2954860285779	975.1391062704053	327.7528978036378	-673.0698927283414	1003.787333417915	353.6166078304691	-562.3483342546806	1009.886700909939	207.2804709500941	-506.6771003019419	1031.600655529838	257.3069983880447	-477.7665353426879	940.6883035107591	413.0471112945962	-531.9477922329256	
627	142.5	865.8800166667154	1411.436246726395	-955.2136155342388	889.7551950061932	1183.543824021178	-878.1812727224094	843.6602641748146	1307.064160110409	-1062.451865316202	686.2586656191786	1362.303165524629	-978.0796795968613	999.4280311968363	1379.27492134959	-1046.203855561667	756.2883998708356	970.4754666104436	-969.4743751935411	1021.92095436378	955.4712668177843	-1003.015413195055	877.2813259168672	992.5446090051222	-811.5777959030794	927.0339118723585	989.6262251322136	-816.3111299161615	736.1969721650543	1026.820670703474	-922.9822063241271	1033.316299155751	1032.539178779222	-963.1610879618756	716.708747517727	915.1399520970356	-924.4739993837925	791.0515441553955	787.6154337010289	-1079.878126647903	745.9719609706664	646.2546096600777	-1020.507444643298	782.8288075706462	483.349785607197	-1079.899706467938	842.7886280156863	399.2054829648445	-1112.879004643768	794.029926281936	295.9619964224254	-1006.376465511641	859.5966811107766	191.0889952436764	-1018.362842485285	835.3377235221499	98.70479713256795	-934.2438272020828	825.4458306047453	63.67614505520675	-1074.832438611428	787.9044885020272	40.60680673138286	-1030.853223614303	886.2573403251871	72.46640090192621	-865.6064922297179	1077.876809211924	885.6093329990694	-947.9549735288509	1000.396193871263	712.8988469946701	-1051.644886246688	1060.251987056437	615.2734484154154	-963.7514898829045	1037.103352708723	446.2794564244525	-944.1457820622423	977.2465398853003	372.9020242778249	-907.5770177042277	1030.021843477957	401.6846710920264	-767.1957484964511	975.0279324389845	328.4385560671643	-680.3874467461502	1004.16421863066	354.7859219050925	-569.9528542384636	1010.590621754099	208.3385385801974	-514.7501109222014	1032.825591292169	258.2737289766135	-486.0277584667372	941.4972619498828	414.3206166530408	-538.5767840686135	
628	142.504	865.8748642976091	1410.751721599539	-955.1011893224681	889.5047069146361	1182.943171120973	-877.3812785560526	844.2433876523814	1305.468644336467	-1062.06727317104	686.2216427514425	1360.905767410693	-978.2363286878799	999.8127105305019	1377.689276617773	-1045.771770320513	756.2203309851991	969.9623854774677	-968.7938959752404	1022.073259542837	954.6000674810367	-1001.328689000737	876.7778017757953	992.2497982252723	-810.6007788620508	926.5326150532458	989.1126112544646	-815.1242004754979	735.9656436817373	1026.65310881729	-921.8559152340799	1033.595496778907	1031.440884284837	-960.7463294666131	716.4169545652162	914.838637650817	-923.6473902168849	791.3610748642772	786.1242987274848	-1077.263315297964	745.2871493793547	644.8307156981898	-1017.341568522016	782.1784794508588	481.0580939267083	-1074.795729921412	841.7110203552608	396.5187760969325	-1107.115584503717	794.0366957970839	294.7949336056974	-998.8080568790124	859.5740979423864	190.0154832509259	-1009.455294388566	835.6679377656841	99.05045842651431	-924.0317266757687	825.3689442740373	63.53664948974552	-1064.147082802743	787.8671785205619	40.71176483637716	-1020.0205392	886.5856735006939	72.94685807705494	-855.1703939276938	1077.620059714128	884.5137336414182	-946.5492483032117	999.3409051990137	713.606086671761	-1053.514597597085	1060.07164898731	614.7755699601462	-967.7575391656976	1036.797674877485	445.6935210688621	-951.8982253002911	976.5458208583088	372.6664572835551	-915.2771107485909	1030.046958133664	401.554047165581	-775.1926148424918	974.8832332395237	329.0409073916674	-687.8964798861423	1004.507289433139	355.6787969602067	-577.6979978855246	1011.212809306967	209.0058668657813	-523.3057073265098	1033.993448127595	258.7642082937573	-494.6647361569501	942.3193152061147	415.2591646399181	-545.1737500618822	
629	142.508	865.9159239074249	1410.218636109972	-954.9798185123877	889.2663502476745	1182.505531456519	-876.5878991591658	844.8670668771656	1304.1141662655	-1061.674242673194	686.2789724917909	1359.794087864567	-978.3992475296847	1000.205225298079	1376.281049822423	-1045.307115371932	756.2085011045273	969.4830941408273	-968.1588238231416	1022.229453726276	954.0029802675119	-999.6145714922941	876.1051824728575	992.1152352597719	-809.631879566811	925.8620568385882	988.8199559321558	-813.9497361440784	735.7644704774951	1026.595257267293	-920.895835754578	1033.80750671289	1030.619409891876	-958.3402043922306	716.1168688938136	914.5409081295581	-922.9034337680763	791.6381362243884	784.5361389499626	-1074.615254458937	744.6848262575695	643.369009772568	-1013.846781674861	781.5364081719425	478.6921315321079	-1069.266573656249	840.6550874170059	393.7767021049579	-1100.972435362359	794.0718803408816	293.548134940553	-990.9796562810187	859.5683837777993	188.9094130088864	-1000.392016413829	836.0064581408654	99.34604312592097	-913.7455242717753	825.3156998759736	63.36292965532743	-1053.423137152328	787.8517825412549	40.77091379706597	-1009.153503106942	886.9409661198662	73.38560047276658	-844.6860961522171	1077.336093334382	883.7395816585595	-945.0076196724101	998.2841713354356	714.5690054967603	-1055.367574650293	1059.85760405396	614.5606027341655	-971.8285562080919	1036.415914459792	445.425034900638	-959.6926321917214	975.7927949657516	372.6913246120706	-923.0795405601243	1030.015366384202	401.5240320914513	-783.2647174751064	974.7052300631626	329.5569128954653	-695.5770425464596	1004.816225918243	356.2891420066026	-585.561316203578	1011.747152905376	209.2822279631827	-532.3186268429764	1035.092068239222	258.778481050938	-503.6511113428057	943.1505182989657	415.851332019287	-551.7256314527087	
630	142.512	865.9933549404774	1409.83368173416	-954.8409492930506	889.0287842140393	1182.223760388071	-875.8051017537811	845.5262771927113	1303.009479815171	-1061.275045011494	686.4178337204482	1358.96816971137	-978.5781681060656	1000.615337590884	1375.0667753324	-1044.790656805377	756.2410224203754	969.03168247317	-967.5683396406932	1022.386575928637	953.6676284753489	-997.8821387937492	875.2753007097001	992.1264159779935	-808.6696665353446	925.0340407541503	988.7280564361014	-812.783726346682	735.5859075995814	1026.622759991762	-920.1121040341627	1033.951932236481	1030.064648127394	-955.9755745994044	715.807173176936	914.2437044970197	-922.2392061054113	791.8527570767524	782.8367759307957	-1071.960834027689	744.1676613927167	641.8869815333875	-1010.038960769094	780.9140482637698	476.285491165317	-1063.360745158922	839.6582243910962	391.016956960065	-1094.47331890185	794.1333422898981	292.2492807156434	-982.9296492920664	859.584162276502	187.7911512127846	-991.1861306623617	836.3476580709714	99.60005237442492	-903.3898417452615	825.2854803545855	63.15588325370354	-1042.6657869169	787.8564309873477	40.78813960031252	-998.2561723430883	887.3159852225089	73.78898211134192	-834.1539495167865	1077.022550419612	883.2643188233432	-943.3411611274926	997.2463485940239	715.7854643586434	-1057.195165302122	1059.608978223688	614.6323469316729	-975.9520361927465	1035.957570295911	445.4832540022542	-967.5044873953465	974.9927750259797	372.9821471348085	-930.9677823972788	1029.924802824613	401.6023084984151	-791.3906915301421	974.4938537574646	329.9834690942715	-703.4098225359603	1005.091068747866	356.6113572965607	-593.522791456838	1012.188329265217	209.1705802573845	-541.762917822335	1036.110494007703	258.3204743304363	-512.961814502415	943.9869111886737	416.0858779407033	-558.2239045031632	
